<?xml version="1.0" encoding="UTF-8" standalone="no"?>
<svg
   width="16"
   height="16"
   version="1.1"
   id="svg1"
   sodipodi:docname="play_test_icon.svg"
   xml:space="preserve"
   inkscape:version="1.4 (86a8ad7, 2024-10-11)"
   xmlns:inkscape="http://www.inkscape.org/namespaces/inkscape"
   xmlns:sodipodi="http://sodipodi.sourceforge.net/DTD/sodipodi-0.dtd"
   xmlns="http://www.w3.org/2000/svg"
   xmlns:svg="http://www.w3.org/2000/svg"><defs
     id="defs1" /><sodipodi:namedview
     id="namedview1"
     pagecolor="#ffffff"
     bordercolor="#000000"
     borderopacity="0.25"
     inkscape:showpageshadow="2"
     inkscape:pageopacity="0.0"
     inkscape:pagecheckerboard="0"
     inkscape:deskcolor="#d1d1d1"
     inkscape:zoom="17.832349"
     inkscape:cx="-1.3458687"
     inkscape:cy="7.3181609"
     inkscape:window-width="1920"
     inkscape:window-height="1009"
     inkscape:window-x="1912"
     inkscape:window-y="-8"
     inkscape:window-maximized="1"
     inkscape:current-layer="svg1" /><path
     id="path1"
     d="m 14.54075,1.107455 -2.24414,0.328125 0.818359,1.9003906 1.714844,-0.25 z M 10.318094,1.7226894 8.3395789,2.0117519 9.1579383,3.9140956 11.136454,3.6250331 Z M 6.3591102,2.3008144 4.3805945,2.5898769 5.1989539,4.4922206 7.1774695,4.2031581 Z m -3.9570313,0.578125 -1.71484373,0.25 L 0.97629762,5.107455 3.2204383,4.77933 Z M 0.97629762,6.107455 v 6 c 0,1.104569 0.89543058,2 1.99999998,2 H 14.976297 v -8 z M 4.6345008,6.6484706 c 0.3531654,0 0.6386718,0.2855059 0.6386718,0.6386719 0,0.106793 0.1109153,0.5149393 0.3398438,0.8007813 0.1605052,0.200797 0.350788,0.3509722 0.5957031,0.4257812 0.1205374,-0.098535 0.2503039,-0.1866828 0.3867188,-0.2617188 -0.398871,-1.5079139 2.8715277,-1.5079139 2.4726562,0 0.1362971,0.075868 0.2645302,0.1643019 0.3847657,0.2636719 0.2449139,-0.074175 0.4358362,-0.2249872 0.5957028,-0.4257812 0.228934,-0.285842 0.341797,-0.6920232 0.341797,-0.7988281 0,-0.852619 1.277344,-0.852619 1.277344,0 -1e-6,0.5333169 -0.207964,1.0841672 -0.619141,1.5976562 -0.226263,0.282632 -0.507767,0.5168859 -0.828125,0.6855469 0.03402,0.0908 0.06244,0.1832741 0.08594,0.2773441 h 1.361329 c 0.85262,0 0.85262,1.277343 0,1.277343 h -1.363282 c -0.02907,0.117605 -0.06785,0.2334 -0.113281,0.345704 0.08931,0.0562 0.177159,0.116587 0.261719,0.179687 0.374086,0.280724 0.707611,0.619718 1.027344,0.939453 0.58212,0.602712 -0.301582,1.486416 -0.904297,0.904297 -0.319732,-0.319733 -0.6258876,-0.621427 -0.890625,-0.820313 -0.108075,-0.08058 -0.1962,-0.129035 -0.28125,-0.171874 -0.9239792,0.719231 -2.2185993,0.719231 -3.1425781,0 -0.085058,0.04284 -0.1744893,0.09067 -0.2832031,0.171874 -0.2653785,0.198876 -0.570892,0.50058 -0.890625,0.820313 -0.6020959,0.56541 -1.4692792,-0.299849 -0.9042969,-0.902344 0.3197331,-0.319734 0.6526153,-0.658086 1.0273437,-0.939453 0.083769,-0.06267 0.1728649,-0.124101 0.2636719,-0.18164 -0.046425,-0.1116 -0.085033,-0.226697 -0.1152343,-0.34375 H 3.9958289 c -0.8526218,0 -0.8526218,-1.279297 0,-1.279297 H 5.3591102 C 5.3828582,9.757934 5.4128228,9.666585 5.4470008,9.576205 5.1080839,9.399714 4.8259889,9.1547541 4.6149695,8.8906581 4.2044387,8.3771651 3.9958289,7.8237248 3.9958289,7.2910488 c 0,-0.3531671 0.2855065,-0.6386719 0.6386719,-0.6386719 z"
     style="fill:#e0e0e0" /></svg>
